<?xml version="1.0" encoding="UTF-8"?><svg id="Layer_2" xmlns="http://www.w3.org/2000/svg" viewBox="0 0 143.25 128.78"><defs><style>.cls-1{stroke-width:0px;}</style></defs><g id="Layer_1-2"><path class="cls-1" d="m83.03,42.27c5.36-4.74,9.7-10.46,14.31-15.88.49-.58.98-1.14,1.48-1.67-1.04,1.89-1.54,4.07-1.23,6.3.37,3.14,1.86,5.98,3.91,8.25,8.17,9.22,26.92,7.58,32.13-4.16,5.36-12.37-2.6-24.91-13.66-30.17-12.18-5.87-28.59-6.44-42.28-2,.96.39,1.94.82,2.96,1.33l.35.17s.06.03.09.04c16.24-5.69,37.46-.11,45.5,15.39,4.78,10.82-.89,19.31-12.67,19.55-5.46.18-11.25-3.52-12.42-9.01-1.39-6.81,4.11-12.3,9.92-10.64,1.09.4,2.23,1.01,3.43,1.87.11.09.21.17.32.26,0,0,.02-.02.03-.03,0,0,0,0,0,0,0,0,.02-.03.04-.06.04-.04.07-.08.07-.08-.58-.48-1.19-.92-1.84-1.31-.1-.06-.2-.11-.3-.17-.13-.07-.26-.15-.39-.22-2.96-1.6-5.97-1.65-8.84-.17-1.45.69-2.75,1.69-3.8,2.93-3.65,3.54-6.64,7.7-9.99,11.5-4.34,5.27-9.14,9.58-14.39,12.94.22.07.44.13.65.2,2.34-1.52,4.55-3.23,6.61-5.16Z"/><path class="cls-1" d="m50.56,55.5c-1.91-.08-3.83-.03-5.71.13-.43.04-.86.08-1.28.12,0,0,0,0,0,0l-2.13.26s2.12.05,2.12.05c.36.01.72.01,1.08.02,5.54.8,11,2.01,15.71,4.48.57.28,1.24.63,1.97,1.02,2.27,1.43,4.01,3.19,5.26,5.18,0,.01.02.03.03.04.62.99,1.13,2.03,1.53,3.12,0,.01,0,.02.01.04.18.51.34,1.03.48,1.55.07.28.14.57.2.85.02.07.03.14.05.22l.22,1.36c.63,4.78-.43,10.04-2.55,14.86-.94,2.16-2.19,4.33-3.68,6.35-3.24-2.68-5.16-6.88-5.48-11.11h-.25c-.04,2.67.5,5.39,1.73,7.83.76,1.67,1.88,3.1,3.2,4.29-.83,1.03-1.73,2-2.7,2.9-.6.56-1.23,1.08-1.88,1.57-.34.26-.68.51-1.03.74l.68,1.09c.42-.23.78-.44,1.2-.69.7-.42,1.38-.86,2.05-1.34,1.23-.87,2.41-1.83,3.51-2.87,4.98,3.17,11.84,3.23,16.26-1.41.25-.26.48-.52.71-.79.11,4.78,2.58,9.24,6.54,12.09.34-.49.67-1,.93-1.44,0,0,0,0,0-.01-3.24-2.05-5.73-5.23-6.44-9.12-.17-.85-.24-1.72-.24-2.59,2.24-3.24,3.1-7.24,2.73-11.05-.06-.57-.13-1.14-.24-1.71-.54-2.74-1.72-5.31-3.52-7.34,1.34.35,2.65.82,3.92,1.46,4.41,2.23,6.94,6.34,7.98,10.97.43,1.91.6,3.91.53,5.9-.08,2.41-.5,4.81-1.24,7.02-.72,2.39-1.76,4.64-3.06,6.73-.31.5-.62.99-.95,1.46-1.12,1.59-2.4,3.07-3.79,4.43-1.53,1.49-3.2,2.84-4.99,4.03-1.16.77-2.36,1.46-3.6,2.09,1.5.67,3.06,1.28,4.65,1.79.12.04.25.07.37.11,1.15-.79,2.27-1.62,3.34-2.5,1.78-1.46,3.45-3.05,4.97-4.76.96-1.07,1.87-2.18,2.71-3.34.4-.55.78-1.11,1.15-1.68,3.02-4.62,5.07-9.83,5.76-15.39.2-1.58.29-3.19.26-4.82-.01-.37-.05-.72-.08-1.08-.41-5.34-2.28-9.73-5.17-13.07,6.37,1.75,12.37,4.67,15.78,10.42,5.26,8.8.37,22.32-10.15,24.31-1.95.33-3.95.2-5.87-.27-.03.05-.06.11-.1.16-.38.58-.73,1.09-1.07,1.56.73.24,1.49.44,2.27.58,10.72,2.48,20.37-7.63,20.6-18.03,1.01-20.46-23.21-27.3-39.79-26.71-1.26.02-2.51.13-3.76.3.58,1.01,1.07,2.06,1.46,3.13.07.18.13.37.19.56l.05.14c.15.47.27.85.36,1.21.01.05.03.1.04.16l.02.1c.13.53.25,1.07.34,1.62.03.18.06.36.09.54,0,.04,0,.08.01.13.32,0,.64-.02.95-.02.94.38,1.84.88,2.67,1.57,2.03,1.66,3.33,3.98,3.97,6.52.14.56.26,1.13.33,1.71.52,4.06-.59,8.4-3.24,11.37-3.29,3.77-9.11,4.32-13.45,2.02-.05-.03-.1-.06-.15-.08,1.02-1.05,1.98-2.16,2.86-3.34,2.6-3.47,4.49-7.45,5.33-11.71.56-2.64.63-5.4.22-8.08-.03-.18-.06-.35-.09-.53-.09-.53-.2-1.06-.34-1.58-.02-.08-.04-.17-.06-.25-.1-.4-.23-.79-.35-1.18-.07-.23-.15-.46-.23-.68-.41-1.12-.92-2.19-1.51-3.22-.01-.02-.03-.05-.04-.07-1.42-2.41-3.35-4.51-5.81-6.05-3.84-2.44-8.2-3.72-12.66-4.21,4.11-.5,8.16-1.43,12.05-2.79-.17-.1-.33-.2-.49-.3-4.49,1.58-9.24,2.58-14.26,2.94Z"/><path class="cls-1" d="m124.34,59.8c-7.71-4.17-15.83-6.33-24.25-7.75-7.26-1.15-15.69-2.28-22.6-4.31-.36-.1-.72-.22-1.09-.33,0,0,0,0,0,0-.22-.06-.49-.15-.65-.2-4.09-1.29-7.94-3-10.86-5.38-5.3-4.01-6.63-11.31-5.14-17.56,2.17-7.96,8.65-13.93,16-17.59-.98-.54-2.03-1.03-3.13-1.46-.15-.06-.31-.11-.46-.17-2.56,1.16-5,2.5-7.2,4.06-6.87,4.74-12.45,12.3-12.97,20.92-.59,10.5,4.94,17.65,12.74,22.44,0,0,0,0,0,0,.02.01.05.03.08.05,0,0,.01,0,.02.01,0,0,0,0,0,0,.14.08.33.2.49.3,0,0,0,0,0,0,0,0,.02.01.03.02.06.04.12.07.16.09,0,0,0,0,0,0,2.78,1.62,5.82,2.97,8.97,4.06,6.66,2.35,13.25,3.86,20.07,4.89,8.46,1.15,17.45,2.95,24.9,6.95,7.96,4.01,14.41,11.4,14.64,20.63.7,22.31-18.14,33.47-37.68,33.47-5.23,0-10.5-.8-15.47-2.39-1.73-.56-3.43-1.21-5.07-1.97-3.06-1.4-5.94-3.14-8.53-5.21-3.91-2.91-7.15-6.56-9.65-10.67-.22-.35-.43-.7-.64-1.06-1.04-1.82-1.91-3.73-2.66-5.7-.43-1.13-.81-2.27-1.14-3.43-.97-3.44-1.51-7.01-1.56-10.6l-.03-.94-2.47,1.12c0,3.47.42,7.05,1.21,10.42.27,1.16.6,2.3.96,3.43.79,2.45,1.77,4.85,2.96,7.13.16.31.34.62.51.92,2.59,4.66,6.01,8.86,10.22,12.25,1.88,1.57,3.92,2.98,6.06,4.25,1.69,1,3.45,1.91,5.26,2.72,7.21,3.22,15.29,4.91,23.32,4.91,10.04,0,19.99-2.65,28.02-8.24,9.77-6.74,15.57-18.69,15.55-30.53.38-12.65-8.11-23.98-18.9-29.56Z"/><path class="cls-1" d="m70.45,120.69c-1.17.35-2.35.65-3.54.87-2.83.55-5.72.87-8.59.87-4.85,0-9.67-.9-14.16-3.09-13.81-6.44-24.19-19.24-29.02-33.52-4.76-14.54-4.53-31.36-.99-46.21C19.17,18.3,36.58,2.06,57.82,2.06c3.47,0,7.04.43,10.67,1.35,1.44.39,2.89.83,4.3,1.37,1.21.46,2.38,1.01,3.5,1.65,1.05.6,2.04,1.27,2.95,2.06,5.26,4.85,7.22,11.8,4.13,18.01-1.89,4-6.6,6.61-11.09,6.61-.92,0-1.83-.11-2.71-.34-6.69-2.05-4.92-10.41-.33-13.95,0,0-.11-.15-.11-.15-3.64,2.34-6.42,6.77-5.17,11.31,1.46,4.64,5.81,6.28,10.36,6.28,2.85,0,5.79-.64,8.14-1.59,7.59-2.88,12.27-11.43,9.06-19.26-1.84-4.7-5.85-7.97-10.07-10.18-.34-.19-.69-.35-1.04-.52-1.13-.57-2.29-1.09-3.49-1.55C71.45,1.07,65.4.16,59.37.16c-5.46,0-10.89.75-15.86,2.06C12.4,10.8-2.69,46.12.39,76.32c1.99,23.08,18.59,44.26,40.96,50.68,3.81,1.23,7.77,1.77,11.74,1.77,5.08,0,10.18-.88,15.04-2.32,2.62-.74,5.18-1.74,7.64-2.95-1.71-.78-3.37-1.64-4.94-2.57-.13-.08-.26-.16-.39-.24Z"/><path class="cls-1" d="m52.18,80.1c5.38-2.53,11.43-4.99,17.42-6.07,0,0,0,0,0,0h0s-.22-1.35-.22-1.35l-.03-.12-.02-.09c-.06-.28-.12-.56-.2-.83-.15-.56-.3-1.05-.48-1.54-.39-1.06-.88-2.07-1.51-3.07-.02-.03-.03-.05-.05-.07-.71.2-1.41.41-2.1.64-2.2.69-4.4,1.54-6.55,2.54-1.4.65-2.78,1.36-4.12,2.13-7.2,4.12-13.58,9.89-17.59,16.63,0,0,0,0,0,0,3.46-2.51,7.07-4.56,10.7-6.49.57-.28,1.15-.57,1.74-.86.97-.48,1.97-.96,3-1.44Z"/><path class="cls-1" d="m36.28,41.1c-1.98,2.63-3.92,5.24-5.71,7.89.04.11.07.21.11.32.54,1.32,1.18,2.61,1.89,3.83,4.07-7.62,9.8-14.62,11.08-23.35.28-3.11.31-6.57-1.86-9.12-2.23-2.59-6.43-2.29-8.92-.3-3.7,2.89-5.49,7.52-6.48,11.96-.16.78-.27,1.58-.35,2.39-.05.5-.08,1.01-.1,1.51-.07,1.76,0,3.54.16,5.25.28,3.73,1.18,7.21,2.57,10.4.67,1.54,1.45,3.01,2.34,4.4,1.88,2.96,4.23,5.6,6.93,7.86,1.5,1.26,3.11,2.41,4.81,3.43,3.33,2,7,3.53,10.85,4.5.04,0,1.79-1.03,4.01-2.07-3.22-.48-6.38-1.4-9.44-2.83-1.92-.79-3.73-1.75-5.43-2.84-1.7-1.09-3.28-2.31-4.74-3.66-2.23-2.07-4.17-4.42-5.72-7.02-.79-1.33-1.49-2.72-2.08-4.17-1.32-3.23-2.12-6.72-2.3-10.4-.05-.93-.07-1.89-.06-2.86,0-.5.02-1.01.05-1.51.28-5.05,1.69-10.24,5.6-13.49,2.09-1.62,5.57-1.9,7.29.29,1.7,2.19,1.43,5.35,1.03,7.99-.81,4.28-3.02,8.02-5.54,11.58Z"/><path class="cls-1" d="m30.78,56.84c-.06-.09-.13-.18-.19-.28-.84-1.32-1.58-2.72-2.23-4.16-3.97,6.48-6.86,13.39-7.18,21.77-1.18,12.45,5.57,26.62,18.31,29.99,4.86,1.35,10.09,1.6,14.86.02l-.45-.92c-1.7.67-3.5,1.08-5.41,1.13-5.77.08-11.67-1.99-15.47-6.41-8.84-10.78-7.83-27.6-2.76-39.9.16-.42.34-.83.52-1.24Z"/></g></svg>