<?xml version="1.0" encoding="UTF-8"?><svg id="Layer_2" xmlns="http://www.w3.org/2000/svg" viewBox="0 0 143.54 129.35"><defs><style>.cls-1{stroke-width:0px;}</style></defs><g id="Layer_1-2"><path class="cls-1" d="m84.84,68.9c-6.94,2.93-14.36,5.4-22.05,4.98-19.67-1.74-35.05-15.9-34.53-36.28.22-6.03,2.15-12.61,6.97-16.55,2.49-1.97,6.67-2.26,8.88.33,3,3.89,2.09,9.25.92,13.65-2.82,8.52-8.52,15.79-11.46,24.17-4.28,11.8-5.28,28.37,2.3,38.94,3.48,4.61,9.25,6.91,14.98,6.93,8.96-.08,15.89-7.98,19.11-15.57,4.48-10.46,3.99-22.81-7.26-28.27-5.01-2.62-10.87-3.83-16.78-4.63v-.31c19.01.7,34.56-6.72,46.59-21.33,3.53-4.01,6.64-8.42,10.57-12.07,4.53-4.4,9.72-4.6,14.56-.46,0,0-.08.11-.08.11-1.45-1.01-3-1.92-4.69-2.39-12.56-3.83-19.24,25.16-45.81,33.64-7.46,2.55-15.43,3.21-23.26,2.88,0,0,2.13-.26,2.13-.26,14.55-1.85,31.06,3.96,31,20.99.03,11.12-7.81,21.24-17.33,26.08-8.12,4.2-19.08,2.9-26.51-2.42-11.07-8.02-13.23-23.48-9.33-35.87,2.54-9.05,9.12-16.67,14.62-23.61,3.5-4.53,6.51-9.79,6.15-15.65-.13-1.38-.47-2.78-1.33-3.8-3.12-3.52-8.31-.59-10.11,2.94-2.88,5.05-3.31,11.17-2.6,16.84,1.56,15.2,13.84,25.61,28.25,28.56,8.69,1.91,17.3-.78,25.82-2.56,0,0,.27.96.27.96h0Z"/><path class="cls-1" d="m71.4,71.88c.69-.14.49-1.68,1.05-2.03.83-.73,1.84-1.63,3.02-1.41,1.02.05,1.47,1.28,1.87,2.13.45,1.06,1.12,1.01,1.71,1.36,6.21,2.95,9.99,9.56,8.62,16.41-2.02,14.45-19.85,16.78-25.44,3.46,0,0,.22-.11.22-.11,1.28,2.09,2.99,3.88,5.01,5.09,3.88,2.36,9.22,2.54,12.88-.2,3.63-2.7,5.25-7.6,4.8-12.03-.27-4.38-2.15-9.55-6.81-10.85-.56-.09-1.05-.54-1.81.25-1.19,1.32-1.64,2.33-3.23.58-.13-.11-.49-.48-.62-.59-.36-.28-.5-1.07-.75-1.46-.18-.28-.35-.44-.5-.38l-.03-.22h0Z"/><path class="cls-1" d="m117.53,22.58c-9.49-7.66-19.74,5.19-11.99,13.63,3,3.44,7.63,5.12,12.05,4.42,11.86-1.54,15.32-13.32,9.47-22.47-6.29-10-18.67-15.45-30.33-15.23-13.75.08-29.73,7.64-33.92,21.42-3.66,15.66,8.78,20.67,21.52,23.74,7.2,1.88,14.28,2.76,21.67,4.38,10.63,2.5,21.52,6.6,29.3,14.79,14.04,14.72,8.95,40.09-6.21,51.91-10.46,8.41-24.41,10.26-37.39,9.43-16.01-1.1-33.98-9.06-39.22-25.58-2.94-9.74,1.35-19.99,11.29-23.11,8.16-2.46,17.81-2.18,23.94,4.16,7.94,8.17,2.52,23.96-9.01,24.81-2.58.23-5.18-.32-7.43-1.46,0,0,.1-.22.1-.22,10.15,4.31,19.81-4.82,17.37-15.1-5.04-15.94-32.32-7.52-27.86,8.57,6.53,20.03,34.43,26.26,52.88,21.38,9.08-2.45,17.34-8.51,20.86-17.38,3.23-8.17,3.35-18.66-1.61-26-5.86-9.04-18.18-13.36-29.08-15.38-7.52-1.29-15.04-2.31-22.43-4.55-7.64-2.27-15.99-5.53-21.48-11.98-5.8-6.68-6.51-16.91-2.85-24.68,2.28-4.98,6.05-9.06,10.42-12.18C80.35.91,96.96-1.05,112,2.31c10.33,2.49,21.06,8.74,24.39,19.5,2.91,8.93-1.27,18.88-10.37,21.96-5.39,1.82-11.26,1.94-16.41-.49-7.65-3.46-12.23-13.78-5.94-20.55,3.69-4.23,10.18-4.21,14.01-.31,0,0-.14.16-.14.16h0Z"/><path class="cls-1" d="m66.49,24.51c3.46,3.3,9.99,2.84,12.66-1.06,1.3-1.85.78-4.34-.36-6.25-2.39-3.92-7.08-6.1-11.52-6.74-9.54-1.41-17.14,5.65-12.26,15.05,3.3,6.22,10.62,8.82,17.48,9.25,17.82,1.85,24.04-17.58,8.86-26.72-12.46-7.03-29.25-5.33-41.54.77-8.24,4.19-14.97,11.13-19.26,19.25-5.41,10.07-7.56,21.81-7.98,33.28-.77,15.79,2.65,32.37,12.88,44.77,8.51,10.61,21.95,17.8,35.91,17.07,9.41-.27,18.86-3.53,25.76-10.06,6.73-6.24,10.9-16.03,9.36-25.11-2.63-15.4-19.45-16.28-31.76-12.64-4.47,1.27-8.99,2.71-13.55,4.38-4.52,1.71-9.2,3.7-12.78,7.06,0,0-.54-.52-.54-.52,2.64-2.01,5.24-4.01,7.88-5.97,10.7-7.72,23.09-14.86,36.8-14.69,15.18-.26,35.17,6.94,36.23,24.51,1.23,13.92-11.51,24.08-24.84,21.23-10.31-1.74-18.49-12.45-15.42-22.8,0,0,.28.06.28.06-.51,3.23-.1,6.53,1.2,9.43,6.56,15.22,31.51,14.22,34-3.13,1.72-17.25-17.56-23.3-31.66-24.42-16.03-1.88-32.71,4.35-43.96,16.32,0,0-.54-.52-.54-.52,6.26-8.13,14.74-15.18,24.79-18.2,10.25-3.25,22.93-3.4,31.66,4.1,8.97,7.9,8.84,20.94,4.5,30.87-6.18,14.86-21.3,24.19-36.96,25.8-21.71,3.08-43.61-9.84-53.79-28.96C.18,85.63-1.33,68.75,1,52.83,3.77,31.67,16.71,10.92,37.53,3.57c13.59-4.99,32.52-5.26,45.08,2.48,4.4,2.83,8.11,7.09,9.28,12.33,1.76,8.23-3.48,16.67-11.71,18.58-7.77,1.77-15.9.6-22.88-3.52-6.07-3.52-10.41-11.48-7.67-18.45,5.7-12.39,25.33-9.88,30.95,1.3,2.84,5.89-1.11,11.05-7.32,11.18-2.59.08-5.19-.94-6.9-2.82,0,0,.13-.13.13-.13h0Z"/></g></svg>