<?xml version="1.0" encoding="UTF-8"?><svg id="Layer_2" xmlns="http://www.w3.org/2000/svg" viewBox="0 0 143.43 129.48"><defs><style>.cls-1{stroke-width:0px;}</style></defs><g id="Layer_1-2"><path class="cls-1" d="m84.72,68.85c-6.94,2.93-14.36,5.4-22.05,4.98-19.67-1.74-35.05-15.9-34.53-36.28.22-6.03,2.15-12.61,6.97-16.55,2.49-1.97,6.67-2.26,8.88.33,3,3.89,2.09,9.25.92,13.65-2.82,8.52-8.52,15.79-11.46,24.17-4.28,11.8-5.28,28.37,2.3,38.94,3.48,4.61,9.25,6.91,14.98,6.93,8.96-.08,15.89-7.98,19.11-15.57,4.48-10.46,3.99-22.81-7.26-28.27-5.01-2.62-10.87-3.83-16.78-4.63,0,0,0-.31,0-.31,19,.7,34.55-6.72,46.58-21.33,3.53-4.01,6.64-8.42,10.57-12.07,4.53-4.4,9.72-4.6,14.56-.46,0,0-.08.11-.08.11-1.45-1.01-3-1.92-4.69-2.39-12.56-3.83-19.23,25.16-45.81,33.64-7.46,2.55-15.43,3.21-23.26,2.88,0,0,2.13-.26,2.13-.26,14.55-1.85,31.06,3.96,31,20.99.03,11.12-7.81,21.23-17.33,26.08-8.12,4.2-19.08,2.9-26.51-2.42-11.07-8.02-13.23-23.48-9.33-35.87,2.54-9.05,9.12-16.67,14.62-23.61,3.5-4.53,6.51-9.79,6.15-15.65-.13-1.38-.47-2.78-1.33-3.8-3.12-3.52-8.31-.59-10.11,2.94-2.88,5.05-3.31,11.17-2.6,16.84,1.56,15.2,13.84,25.61,28.25,28.56,8.69,1.91,17.3-.78,25.82-2.56,0,0,.27.96.27.96h0Z"/><path class="cls-1" d="m71.28,71.83c.69-.14.49-1.68,1.05-2.03.83-.73,1.84-1.63,3.02-1.41,1.02.05,1.47,1.28,1.87,2.13.45,1.06,1.12,1.01,1.71,1.36,6.21,2.95,9.99,9.56,8.62,16.41-2.02,14.45-19.85,16.78-25.44,3.46,0,0,.22-.11.22-.11,1.28,2.09,2.99,3.88,5.01,5.09,3.88,2.36,9.22,2.54,12.88-.2,3.63-2.7,5.25-7.6,4.8-12.03-.27-4.38-2.15-9.55-6.81-10.85-.56-.09-1.05-.54-1.81.25-1.19,1.32-1.64,2.33-3.23.58-.13-.11-.49-.48-.62-.59-.36-.28-.5-1.07-.75-1.46-.18-.28-.35-.44-.5-.38l-.03-.22h0Z"/><path class="cls-1" d="m117.41,22.53c-6.41-5.48-15.18-.51-14.71,7.54.65,6.9,8.24,11.65,14.76,10.5,8.93-1.09,13.84-8.69,11.85-16.86-2.27-8.7-10.17-15.08-18.37-18.29-16.99-6.84-42.36.38-48.26,18.87-1.61,5.7-.31,12.23,4.05,16.19,2.99,2.64,6.9,4.4,10.86,5.67,9.22,3.08,18.7,4.22,28.29,6.26,8.01,1.88,15.69,4.52,22.72,9.23,4.77,3.19,8.99,7.55,11.61,12.75,7.33,15.06,1.55,34.66-11.25,44.73-8.31,6.73-19.13,9.29-29.57,9.57-15.93.56-33.45-4.1-43.17-17.79-7.82-10.62-6.34-26.55,7.41-31.04,8.16-2.46,17.81-2.18,23.94,4.16,10.24,11.34-1.9,30.48-16.44,23.34,0,0,.1-.22.1-.22,2.3.96,4.83,1.3,7.23.91,13.11-2.3,14.55-21.77.8-24.23-7.74-1.59-17.3,3.13-18.79,11.25-.71,3.88.7,7.78,2.79,11.17,4.92,7.72,13.17,12.66,21.96,15.17,13.54,3.68,29.61,3.29,40.99-5.72,7.43-5.84,11.03-15.4,10.52-24.71-.15-4.56-1.47-8.84-3.84-12.37-6.56-10.03-20.69-14.17-32.61-15.98-18.12-2.84-47.31-8.4-45.38-32.4.58-8.4,5.91-15.69,12.57-20.39C82.06-.4,102.92-2.01,119.32,4.73c10.15,4.09,19.5,14.06,17.63,25.79-2.03,15.55-25.21,19.65-33.78,7.38-5.38-7.01-1.9-18.04,7.44-18.48,2.66-.03,5.12,1.22,6.95,2.94l-.14.16h0Z"/><path class="cls-1" d="m66.37,24.46c3.46,3.3,9.99,2.84,12.66-1.06,1.3-1.85.78-4.34-.36-6.25-2.39-3.92-7.08-6.1-11.52-6.74-9.54-1.41-17.14,5.65-12.26,15.05,3.3,6.22,10.62,8.82,17.48,9.25,6.85.73,14.59-2.05,16.71-9.13,2.51-6.9-1.83-14.13-7.86-17.58-8.33-4.94-18.73-5.22-28.07-3.79C27.8,8.39,14.52,29.99,12.67,54.29c-1.24,13.61-.13,27.82,5.8,40.24,7.58,16.34,24.14,29.28,42.77,28.47,9.39-.19,18.88-3.42,25.77-9.93,6.74-6.24,10.91-16.03,9.37-25.11-2.63-15.4-19.45-16.28-31.77-12.64-6.72,1.99-13.87,4.07-20.27,7.29-2.18,1.13-4.29,2.45-6.06,4.15,0,0-.54-.52-.54-.52,2.64-2.01,5.24-4.01,7.88-5.97,10.7-7.72,23.09-14.86,36.8-14.69,15.18-.26,35.17,6.94,36.23,24.51,1.48,18.72-20.32,28.15-34.2,16.78-5.29-4.34-8.01-11.78-6.06-18.36,0,0,.28.06.28.06-1.74,9.77,6.06,18.91,15.61,19.99,17.63,2.33,26.53-17.2,13.61-29.13-4.35-3.88-10.27-6.19-16.34-7.54-19.21-4.65-39.41.06-53.3,14.89,0,0-.54-.52-.54-.52,6.26-8.13,14.74-15.18,24.79-18.2,10.25-3.25,22.93-3.4,31.66,4.1,8.96,7.91,8.83,20.93,4.5,30.86-6.18,14.86-21.3,24.21-36.94,25.94-21.8,3.25-43.98-9.62-54.03-28.97C-.07,85.65-1.33,68.68,1.14,52.82,4.23,31.65,16.73,11.25,37.48,3.68c14.87-5.75,40-5.84,50.85,7.52,5.32,6.22,4.98,16.36-1.18,21.92-3.98,3.71-9.71,4.79-14.91,4.54-7.74-.27-16.47-3.11-21.02-10.01-2.35-3.67-3.38-8.54-1.7-12.71,5.7-12.39,25.33-9.88,30.95,1.3,2.84,5.89-1.11,11.05-7.32,11.18-2.59.08-5.19-.94-6.9-2.82,0,0,.13-.13.13-.13h0Z"/></g></svg>